# Generated experimental raised-cosine road bump; metres.
mtllib bump_surface.mtl
o curved_bump
usemtl surface
v -0.0250000000 -0.2250000000 0.0000000000
v -0.0250000000 0.2250000000 0.0000000000
v -0.0250000000 -0.2250000000 -0.0010000000
v -0.0250000000 0.2250000000 -0.0010000000
v -0.0225000000 -0.2250000000 0.0002447174
v -0.0225000000 0.2250000000 0.0002447174
v -0.0225000000 -0.2250000000 -0.0010000000
v -0.0225000000 0.2250000000 -0.0010000000
v -0.0200000000 -0.2250000000 0.0009549150
v -0.0200000000 0.2250000000 0.0009549150
v -0.0200000000 -0.2250000000 -0.0010000000
v -0.0200000000 0.2250000000 -0.0010000000
v -0.0175000000 -0.2250000000 0.0020610737
v -0.0175000000 0.2250000000 0.0020610737
v -0.0175000000 -0.2250000000 -0.0010000000
v -0.0175000000 0.2250000000 -0.0010000000
v -0.0150000000 -0.2250000000 0.0034549150
v -0.0150000000 0.2250000000 0.0034549150
v -0.0150000000 -0.2250000000 -0.0010000000
v -0.0150000000 0.2250000000 -0.0010000000
v -0.0125000000 -0.2250000000 0.0050000000
v -0.0125000000 0.2250000000 0.0050000000
v -0.0125000000 -0.2250000000 -0.0010000000
v -0.0125000000 0.2250000000 -0.0010000000
v -0.0100000000 -0.2250000000 0.0065450850
v -0.0100000000 0.2250000000 0.0065450850
v -0.0100000000 -0.2250000000 -0.0010000000
v -0.0100000000 0.2250000000 -0.0010000000
v -0.0075000000 -0.2250000000 0.0079389263
v -0.0075000000 0.2250000000 0.0079389263
v -0.0075000000 -0.2250000000 -0.0010000000
v -0.0075000000 0.2250000000 -0.0010000000
v -0.0050000000 -0.2250000000 0.0090450850
v -0.0050000000 0.2250000000 0.0090450850
v -0.0050000000 -0.2250000000 -0.0010000000
v -0.0050000000 0.2250000000 -0.0010000000
v -0.0025000000 -0.2250000000 0.0097552826
v -0.0025000000 0.2250000000 0.0097552826
v -0.0025000000 -0.2250000000 -0.0010000000
v -0.0025000000 0.2250000000 -0.0010000000
v 0.0000000000 -0.2250000000 0.0100000000
v 0.0000000000 0.2250000000 0.0100000000
v 0.0000000000 -0.2250000000 -0.0010000000
v 0.0000000000 0.2250000000 -0.0010000000
v 0.0025000000 -0.2250000000 0.0097552826
v 0.0025000000 0.2250000000 0.0097552826
v 0.0025000000 -0.2250000000 -0.0010000000
v 0.0025000000 0.2250000000 -0.0010000000
v 0.0050000000 -0.2250000000 0.0090450850
v 0.0050000000 0.2250000000 0.0090450850
v 0.0050000000 -0.2250000000 -0.0010000000
v 0.0050000000 0.2250000000 -0.0010000000
v 0.0075000000 -0.2250000000 0.0079389263
v 0.0075000000 0.2250000000 0.0079389263
v 0.0075000000 -0.2250000000 -0.0010000000
v 0.0075000000 0.2250000000 -0.0010000000
v 0.0100000000 -0.2250000000 0.0065450850
v 0.0100000000 0.2250000000 0.0065450850
v 0.0100000000 -0.2250000000 -0.0010000000
v 0.0100000000 0.2250000000 -0.0010000000
v 0.0125000000 -0.2250000000 0.0050000000
v 0.0125000000 0.2250000000 0.0050000000
v 0.0125000000 -0.2250000000 -0.0010000000
v 0.0125000000 0.2250000000 -0.0010000000
v 0.0150000000 -0.2250000000 0.0034549150
v 0.0150000000 0.2250000000 0.0034549150
v 0.0150000000 -0.2250000000 -0.0010000000
v 0.0150000000 0.2250000000 -0.0010000000
v 0.0175000000 -0.2250000000 0.0020610737
v 0.0175000000 0.2250000000 0.0020610737
v 0.0175000000 -0.2250000000 -0.0010000000
v 0.0175000000 0.2250000000 -0.0010000000
v 0.0200000000 -0.2250000000 0.0009549150
v 0.0200000000 0.2250000000 0.0009549150
v 0.0200000000 -0.2250000000 -0.0010000000
v 0.0200000000 0.2250000000 -0.0010000000
v 0.0225000000 -0.2250000000 0.0002447174
v 0.0225000000 0.2250000000 0.0002447174
v 0.0225000000 -0.2250000000 -0.0010000000
v 0.0225000000 0.2250000000 -0.0010000000
v 0.0250000000 -0.2250000000 0.0000000000
v 0.0250000000 0.2250000000 0.0000000000
v 0.0250000000 -0.2250000000 -0.0010000000
v 0.0250000000 0.2250000000 -0.0010000000
vn -0.0974213414 0.0000000000 0.9952432277
vn -0.0974213414 0.0000000000 0.9952432277
vn 0.0000000000 0.0000000000 -1.0000000000
vn 0.0000000000 0.0000000000 -1.0000000000
vn 0.0000000000 -1.0000000000 0.0000000000
vn 0.0000000000 -1.0000000000 0.0000000000
vn -0.0000000000 1.0000000000 0.0000000000
vn 0.0000000000 1.0000000000 0.0000000000
vn -0.2732665289 0.0000000000 0.9619383578
vn -0.2732665289 0.0000000000 0.9619383578
vn 0.0000000000 0.0000000000 -1.0000000000
vn 0.0000000000 0.0000000000 -1.0000000000
vn 0.0000000000 -1.0000000000 0.0000000000
vn 0.0000000000 -1.0000000000 0.0000000000
vn -0.0000000000 1.0000000000 0.0000000000
vn 0.0000000000 1.0000000000 0.0000000000
vn -0.4046251688 0.0000000000 0.9144826257
vn -0.4046251688 0.0000000000 0.9144826257
vn 0.0000000000 0.0000000000 -1.0000000000
vn 0.0000000000 0.0000000000 -1.0000000000
vn 0.0000000000 -1.0000000000 0.0000000000
vn 0.0000000000 -1.0000000000 0.0000000000
vn -0.0000000000 1.0000000000 0.0000000000
vn 0.0000000000 1.0000000000 0.0000000000
vn -0.4869645202 0.0000000000 0.8734217515
vn -0.4869645202 0.0000000000 0.8734217515
vn 0.0000000000 0.0000000000 -1.0000000000
vn 0.0000000000 0.0000000000 -1.0000000000
vn 0.0000000000 -1.0000000000 0.0000000000
vn 0.0000000000 -1.0000000000 0.0000000000
vn -0.0000000000 1.0000000000 0.0000000000
vn 0.0000000000 1.0000000000 0.0000000000
vn -0.5257311121 0.0000000000 0.8506508084
vn -0.5257311121 0.0000000000 0.8506508084
vn 0.0000000000 0.0000000000 -1.0000000000
vn 0.0000000000 0.0000000000 -1.0000000000
vn 0.0000000000 -1.0000000000 0.0000000000
vn 0.0000000000 -1.0000000000 0.0000000000
vn -0.0000000000 1.0000000000 0.0000000000
vn 0.0000000000 1.0000000000 0.0000000000
vn -0.5257311121 0.0000000000 0.8506508084
vn -0.5257311121 0.0000000000 0.8506508084
vn 0.0000000000 0.0000000000 -1.0000000000
vn 0.0000000000 0.0000000000 -1.0000000000
vn 0.0000000000 -1.0000000000 0.0000000000
vn 0.0000000000 -1.0000000000 0.0000000000
vn -0.0000000000 1.0000000000 0.0000000000
vn 0.0000000000 1.0000000000 0.0000000000
vn -0.4869645202 0.0000000000 0.8734217515
vn -0.4869645202 0.0000000000 0.8734217515
vn 0.0000000000 0.0000000000 -1.0000000000
vn 0.0000000000 0.0000000000 -1.0000000000
vn 0.0000000000 -1.0000000000 0.0000000000
vn 0.0000000000 -1.0000000000 0.0000000000
vn -0.0000000000 1.0000000000 0.0000000000
vn 0.0000000000 1.0000000000 0.0000000000
vn -0.4046251688 0.0000000000 0.9144826257
vn -0.4046251688 0.0000000000 0.9144826257
vn 0.0000000000 0.0000000000 -1.0000000000
vn 0.0000000000 0.0000000000 -1.0000000000
vn 0.0000000000 -1.0000000000 0.0000000000
vn 0.0000000000 -1.0000000000 0.0000000000
vn -0.0000000000 1.0000000000 0.0000000000
vn 0.0000000000 1.0000000000 0.0000000000
vn -0.2732665289 0.0000000000 0.9619383578
vn -0.2732665289 0.0000000000 0.9619383578
vn 0.0000000000 0.0000000000 -1.0000000000
vn 0.0000000000 0.0000000000 -1.0000000000
vn 0.0000000000 -1.0000000000 0.0000000000
vn 0.0000000000 -1.0000000000 0.0000000000
vn -0.0000000000 1.0000000000 0.0000000000
vn 0.0000000000 1.0000000000 0.0000000000
vn -0.0974213414 0.0000000000 0.9952432277
vn -0.0974213414 0.0000000000 0.9952432277
vn 0.0000000000 0.0000000000 -1.0000000000
vn 0.0000000000 0.0000000000 -1.0000000000
vn 0.0000000000 -1.0000000000 0.0000000000
vn 0.0000000000 -1.0000000000 0.0000000000
vn -0.0000000000 1.0000000000 0.0000000000
vn 0.0000000000 1.0000000000 0.0000000000
vn 0.0974213414 0.0000000000 0.9952432277
vn 0.0974213414 -0.0000000000 0.9952432277
vn 0.0000000000 0.0000000000 -1.0000000000
vn 0.0000000000 0.0000000000 -1.0000000000
vn 0.0000000000 -1.0000000000 0.0000000000
vn 0.0000000000 -1.0000000000 0.0000000000
vn 0.0000000000 1.0000000000 0.0000000000
vn 0.0000000000 1.0000000000 0.0000000000
vn 0.2732665289 0.0000000000 0.9619383578
vn 0.2732665289 -0.0000000000 0.9619383578
vn 0.0000000000 0.0000000000 -1.0000000000
vn 0.0000000000 0.0000000000 -1.0000000000
vn 0.0000000000 -1.0000000000 0.0000000000
vn 0.0000000000 -1.0000000000 0.0000000000
vn 0.0000000000 1.0000000000 0.0000000000
vn 0.0000000000 1.0000000000 0.0000000000
vn 0.4046251688 0.0000000000 0.9144826257
vn 0.4046251688 -0.0000000000 0.9144826257
vn 0.0000000000 0.0000000000 -1.0000000000
vn 0.0000000000 0.0000000000 -1.0000000000
vn 0.0000000000 -1.0000000000 0.0000000000
vn 0.0000000000 -1.0000000000 0.0000000000
vn 0.0000000000 1.0000000000 0.0000000000
vn 0.0000000000 1.0000000000 0.0000000000
vn 0.4869645202 0.0000000000 0.8734217515
vn 0.4869645202 -0.0000000000 0.8734217515
vn 0.0000000000 0.0000000000 -1.0000000000
vn 0.0000000000 0.0000000000 -1.0000000000
vn 0.0000000000 -1.0000000000 0.0000000000
vn 0.0000000000 -1.0000000000 0.0000000000
vn 0.0000000000 1.0000000000 0.0000000000
vn 0.0000000000 1.0000000000 0.0000000000
vn 0.5257311121 0.0000000000 0.8506508084
vn 0.5257311121 -0.0000000000 0.8506508084
vn 0.0000000000 0.0000000000 -1.0000000000
vn 0.0000000000 0.0000000000 -1.0000000000
vn 0.0000000000 -1.0000000000 0.0000000000
vn 0.0000000000 -1.0000000000 0.0000000000
vn 0.0000000000 1.0000000000 0.0000000000
vn 0.0000000000 1.0000000000 0.0000000000
vn 0.5257311121 0.0000000000 0.8506508084
vn 0.5257311121 -0.0000000000 0.8506508084
vn 0.0000000000 0.0000000000 -1.0000000000
vn 0.0000000000 0.0000000000 -1.0000000000
vn 0.0000000000 -1.0000000000 0.0000000000
vn 0.0000000000 -1.0000000000 0.0000000000
vn 0.0000000000 1.0000000000 0.0000000000
vn 0.0000000000 1.0000000000 0.0000000000
vn 0.4869645202 0.0000000000 0.8734217515
vn 0.4869645202 -0.0000000000 0.8734217515
vn 0.0000000000 0.0000000000 -1.0000000000
vn 0.0000000000 0.0000000000 -1.0000000000
vn 0.0000000000 -1.0000000000 0.0000000000
vn 0.0000000000 -1.0000000000 0.0000000000
vn 0.0000000000 1.0000000000 0.0000000000
vn 0.0000000000 1.0000000000 0.0000000000
vn 0.4046251688 0.0000000000 0.9144826257
vn 0.4046251688 -0.0000000000 0.9144826257
vn 0.0000000000 0.0000000000 -1.0000000000
vn 0.0000000000 0.0000000000 -1.0000000000
vn 0.0000000000 -1.0000000000 0.0000000000
vn 0.0000000000 -1.0000000000 0.0000000000
vn 0.0000000000 1.0000000000 0.0000000000
vn 0.0000000000 1.0000000000 0.0000000000
vn 0.2732665289 0.0000000000 0.9619383578
vn 0.2732665289 -0.0000000000 0.9619383578
vn 0.0000000000 0.0000000000 -1.0000000000
vn 0.0000000000 0.0000000000 -1.0000000000
vn 0.0000000000 -1.0000000000 0.0000000000
vn 0.0000000000 -1.0000000000 0.0000000000
vn 0.0000000000 1.0000000000 0.0000000000
vn 0.0000000000 1.0000000000 0.0000000000
vn 0.0974213414 0.0000000000 0.9952432277
vn 0.0974213414 -0.0000000000 0.9952432277
vn 0.0000000000 0.0000000000 -1.0000000000
vn 0.0000000000 0.0000000000 -1.0000000000
vn 0.0000000000 -1.0000000000 0.0000000000
vn 0.0000000000 -1.0000000000 0.0000000000
vn 0.0000000000 1.0000000000 0.0000000000
vn 0.0000000000 1.0000000000 0.0000000000
vn -1.0000000000 0.0000000000 0.0000000000
vn -1.0000000000 0.0000000000 0.0000000000
vn 1.0000000000 0.0000000000 0.0000000000
vn 1.0000000000 -0.0000000000 0.0000000000
f 1//1 5//1 6//1
f 1//2 6//2 2//2
f 3//3 4//3 8//3
f 3//4 8//4 7//4
f 3//5 7//5 5//5
f 3//6 5//6 1//6
f 2//7 6//7 8//7
f 2//8 8//8 4//8
f 5//9 9//9 10//9
f 5//10 10//10 6//10
f 7//11 8//11 12//11
f 7//12 12//12 11//12
f 7//13 11//13 9//13
f 7//14 9//14 5//14
f 6//15 10//15 12//15
f 6//16 12//16 8//16
f 9//17 13//17 14//17
f 9//18 14//18 10//18
f 11//19 12//19 16//19
f 11//20 16//20 15//20
f 11//21 15//21 13//21
f 11//22 13//22 9//22
f 10//23 14//23 16//23
f 10//24 16//24 12//24
f 13//25 17//25 18//25
f 13//26 18//26 14//26
f 15//27 16//27 20//27
f 15//28 20//28 19//28
f 15//29 19//29 17//29
f 15//30 17//30 13//30
f 14//31 18//31 20//31
f 14//32 20//32 16//32
f 17//33 21//33 22//33
f 17//34 22//34 18//34
f 19//35 20//35 24//35
f 19//36 24//36 23//36
f 19//37 23//37 21//37
f 19//38 21//38 17//38
f 18//39 22//39 24//39
f 18//40 24//40 20//40
f 21//41 25//41 26//41
f 21//42 26//42 22//42
f 23//43 24//43 28//43
f 23//44 28//44 27//44
f 23//45 27//45 25//45
f 23//46 25//46 21//46
f 22//47 26//47 28//47
f 22//48 28//48 24//48
f 25//49 29//49 30//49
f 25//50 30//50 26//50
f 27//51 28//51 32//51
f 27//52 32//52 31//52
f 27//53 31//53 29//53
f 27//54 29//54 25//54
f 26//55 30//55 32//55
f 26//56 32//56 28//56
f 29//57 33//57 34//57
f 29//58 34//58 30//58
f 31//59 32//59 36//59
f 31//60 36//60 35//60
f 31//61 35//61 33//61
f 31//62 33//62 29//62
f 30//63 34//63 36//63
f 30//64 36//64 32//64
f 33//65 37//65 38//65
f 33//66 38//66 34//66
f 35//67 36//67 40//67
f 35//68 40//68 39//68
f 35//69 39//69 37//69
f 35//70 37//70 33//70
f 34//71 38//71 40//71
f 34//72 40//72 36//72
f 37//73 41//73 42//73
f 37//74 42//74 38//74
f 39//75 40//75 44//75
f 39//76 44//76 43//76
f 39//77 43//77 41//77
f 39//78 41//78 37//78
f 38//79 42//79 44//79
f 38//80 44//80 40//80
f 41//81 45//81 46//81
f 41//82 46//82 42//82
f 43//83 44//83 48//83
f 43//84 48//84 47//84
f 43//85 47//85 45//85
f 43//86 45//86 41//86
f 42//87 46//87 48//87
f 42//88 48//88 44//88
f 45//89 49//89 50//89
f 45//90 50//90 46//90
f 47//91 48//91 52//91
f 47//92 52//92 51//92
f 47//93 51//93 49//93
f 47//94 49//94 45//94
f 46//95 50//95 52//95
f 46//96 52//96 48//96
f 49//97 53//97 54//97
f 49//98 54//98 50//98
f 51//99 52//99 56//99
f 51//100 56//100 55//100
f 51//101 55//101 53//101
f 51//102 53//102 49//102
f 50//103 54//103 56//103
f 50//104 56//104 52//104
f 53//105 57//105 58//105
f 53//106 58//106 54//106
f 55//107 56//107 60//107
f 55//108 60//108 59//108
f 55//109 59//109 57//109
f 55//110 57//110 53//110
f 54//111 58//111 60//111
f 54//112 60//112 56//112
f 57//113 61//113 62//113
f 57//114 62//114 58//114
f 59//115 60//115 64//115
f 59//116 64//116 63//116
f 59//117 63//117 61//117
f 59//118 61//118 57//118
f 58//119 62//119 64//119
f 58//120 64//120 60//120
f 61//121 65//121 66//121
f 61//122 66//122 62//122
f 63//123 64//123 68//123
f 63//124 68//124 67//124
f 63//125 67//125 65//125
f 63//126 65//126 61//126
f 62//127 66//127 68//127
f 62//128 68//128 64//128
f 65//129 69//129 70//129
f 65//130 70//130 66//130
f 67//131 68//131 72//131
f 67//132 72//132 71//132
f 67//133 71//133 69//133
f 67//134 69//134 65//134
f 66//135 70//135 72//135
f 66//136 72//136 68//136
f 69//137 73//137 74//137
f 69//138 74//138 70//138
f 71//139 72//139 76//139
f 71//140 76//140 75//140
f 71//141 75//141 73//141
f 71//142 73//142 69//142
f 70//143 74//143 76//143
f 70//144 76//144 72//144
f 73//145 77//145 78//145
f 73//146 78//146 74//146
f 75//147 76//147 80//147
f 75//148 80//148 79//148
f 75//149 79//149 77//149
f 75//150 77//150 73//150
f 74//151 78//151 80//151
f 74//152 80//152 76//152
f 77//153 81//153 82//153
f 77//154 82//154 78//154
f 79//155 80//155 84//155
f 79//156 84//156 83//156
f 79//157 83//157 81//157
f 79//158 81//158 77//158
f 78//159 82//159 84//159
f 78//160 84//160 80//160
f 1//161 2//161 4//161
f 1//162 4//162 3//162
f 81//163 83//163 84//163
f 81//164 84//164 82//164
