<svg xmlns="http://www.w3.org/2000/svg" width="1600" height="860" viewBox="0 0 1600 860" role="img">
<title>벽으로 도로 경계를 추정하되 가린 점유는 미확인</title>
<rect width="1600" height="860" fill="white"/>
<text x="45.00" y="34.00" fill="#172b3a" font-family="Malgun Gothic, Noto Sans CJK KR, sans-serif" font-size="32" dominant-baseline="text-before-edge">도로 경계는 벽으로 추정할 수 있습니다. 가려진 장애물까지 알 수 있는 것은 아닙니다</text>
<text x="45.00" y="90.00" fill="#516573" font-family="Malgun Gothic, Noto Sans CJK KR, sans-serif" font-size="25" dominant-baseline="text-before-edge">현재 공식 v2026.09.02의 일반 본선: 도로 45 cm + 좌우 잔디 각 20 cm</text>
<polygon points="65.00,220.00 930.00,220.00 930.00,245.00 65.00,245.00" fill="#6d7c87" fill-opacity="1.0"/>
<polygon points="65.00,245.00 930.00,245.00 930.00,345.00 65.00,345.00" fill="#c5dfc1" fill-opacity="1.0"/>
<polygon points="65.00,345.00 930.00,345.00 930.00,570.00 65.00,570.00" fill="#eef1f3" fill-opacity="1.0"/>
<polygon points="65.00,570.00 930.00,570.00 930.00,670.00 65.00,670.00" fill="#c5dfc1" fill-opacity="1.0"/>
<polygon points="65.00,670.00 930.00,670.00 930.00,695.00 65.00,695.00" fill="#6d7c87" fill-opacity="1.0"/>
<polyline points="65.00,345.00 930.00,345.00" fill="none" stroke="#2378ba" stroke-width="3" stroke-dasharray="7 6"/>
<polyline points="65.00,570.00 930.00,570.00" fill="none" stroke="#2378ba" stroke-width="3" stroke-dasharray="7 6"/>
<polyline points="65.00,457.50 930.00,457.50" fill="none" stroke="#dbe3e8" stroke-width="2" stroke-dasharray="7 6"/>
<text x="79.00" y="258.00" fill="#172b3a" font-family="Malgun Gothic, Noto Sans CJK KR, sans-serif" font-size="23" dominant-baseline="text-before-edge">잔디</text>
<text x="79.00" y="582.00" fill="#172b3a" font-family="Malgun Gothic, Noto Sans CJK KR, sans-serif" font-size="23" dominant-baseline="text-before-edge">잔디</text>
<text x="79.00" y="180.00" fill="#516573" font-family="Malgun Gothic, Noto Sans CJK KR, sans-serif" font-size="23" dominant-baseline="text-before-edge">벽 안쪽 면</text>
<polyline points="157.00,210.00 157.00,245.00" fill="none" stroke="#516573" stroke-width="2"/>
<polygon points="157.00,245.00 152.22,235.10 161.78,235.10" fill="#516573" fill-opacity="1.0"/>
<polygon points="483.00,420.00 930.00,356.75 930.00,558.25 483.00,495.00" fill="#b34242" fill-opacity="0.095"/>
<polyline points="218.00,457.50 483.00,420.00 930.00,356.75" fill="none" stroke="#b34242" stroke-width="2" stroke-dasharray="7 6"/>
<polyline points="218.00,457.50 483.00,495.00 930.00,558.25" fill="none" stroke="#b34242" stroke-width="2" stroke-dasharray="7 6"/>
<polygon points="205.00,420.00 305.00,420.00 305.00,495.00 205.00,495.00" fill="#d1e7f5" fill-opacity="1.0" stroke="#2378ba" stroke-width="2"/>
<polyline points="230.00,457.50 286.00,457.50" fill="none" stroke="#2378ba" stroke-width="3"/>
<polygon points="286.00,457.50 276.10,462.28 276.10,452.72" fill="#2378ba" fill-opacity="1.0"/>
<polygon points="209.00,434.00 218.00,434.00 218.00,481.00 209.00,481.00" fill="#2378ba" fill-opacity="1.0"/>
<polygon points="483.00,420.00 583.00,420.00 583.00,495.00 483.00,495.00" fill="#e4c5a4" fill-opacity="1.0" stroke="#c27716" stroke-width="2"/>
<text x="205.00" y="525.00" fill="#172b3a" font-family="Malgun Gothic, Noto Sans CJK KR, sans-serif" font-size="23" dominant-baseline="text-before-edge">우리 차량</text>
<text x="510.00" y="525.00" fill="#172b3a" font-family="Malgun Gothic, Noto Sans CJK KR, sans-serif" font-size="23" dominant-baseline="text-before-edge">앞차</text>
<text x="646.00" y="418.00" fill="#172b3a" font-family="Malgun Gothic, Noto Sans CJK KR, sans-serif" font-size="22" dominant-baseline="text-before-edge">경로 모양은 추정 가능</text>
<text x="635.00" y="464.00" fill="#b34242" font-family="Malgun Gothic, Noto Sans CJK KR, sans-serif" font-size="22" dominant-baseline="text-before-edge">새 장애물 유무는 미확인</text>
<polyline points="965.00,245.00 965.00,345.00" fill="none" stroke="#516573" stroke-width="2"/>
<polygon points="965.00,345.00 960.22,335.10 969.78,335.10" fill="#516573" fill-opacity="1.0"/>
<polygon points="965.00,245.00 969.78,254.90 960.22,254.90" fill="#516573" fill-opacity="1.0"/>
<text x="990.00" y="283.00" fill="#172b3a" font-family="Malgun Gothic, Noto Sans CJK KR, sans-serif" font-size="23" dominant-baseline="text-before-edge">20 cm</text>
<polyline points="965.00,345.00 965.00,570.00" fill="none" stroke="#516573" stroke-width="2"/>
<polygon points="965.00,570.00 960.22,560.10 969.78,560.10" fill="#516573" fill-opacity="1.0"/>
<polygon points="965.00,345.00 969.78,354.90 960.22,354.90" fill="#516573" fill-opacity="1.0"/>
<text x="990.00" y="445.50" fill="#172b3a" font-family="Malgun Gothic, Noto Sans CJK KR, sans-serif" font-size="23" dominant-baseline="text-before-edge">45 cm</text>
<polyline points="965.00,570.00 965.00,670.00" fill="none" stroke="#516573" stroke-width="2"/>
<polygon points="965.00,670.00 960.22,660.10 969.78,660.10" fill="#516573" fill-opacity="1.0"/>
<polygon points="965.00,570.00 969.78,579.90 960.22,579.90" fill="#516573" fill-opacity="1.0"/>
<text x="990.00" y="608.00" fill="#172b3a" font-family="Malgun Gothic, Noto Sans CJK KR, sans-serif" font-size="23" dominant-baseline="text-before-edge">20 cm</text>
<text x="1110.00" y="232.00" fill="#172b3a" font-family="Malgun Gothic, Noto Sans CJK KR, sans-serif" font-size="28" dominant-baseline="text-before-edge">관측과 추정을 분리</text>
<circle cx="1120" cy="301" r="7" fill="#6d7c87"/>
<text x="1142.00" y="285.00" fill="#172b3a" font-family="Malgun Gothic, Noto Sans CJK KR, sans-serif" font-size="24" dominant-baseline="text-before-edge">벽: 직접 관측</text>
<polyline points="1108.00,363.00 1134.00,363.00" fill="none" stroke="#2378ba" stroke-width="3" stroke-dasharray="7 6"/>
<text x="1142.00" y="345.00" fill="#172b3a" font-family="Malgun Gothic, Noto Sans CJK KR, sans-serif" font-size="23" dominant-baseline="text-before-edge">도로 경계: 벽에서 추정</text>
<polygon points="1112.00,417.00 1128.00,417.00 1128.00,433.00 1112.00,433.00" fill="#b34242" fill-opacity="0.2"/>
<text x="1142.00" y="405.00" fill="#172b3a" font-family="Malgun Gothic, Noto Sans CJK KR, sans-serif" font-size="24" dominant-baseline="text-before-edge">앞차 뒤: 점유 미확인</text>
<text x="1110.00" y="500.00" fill="#516573" font-family="Malgun Gothic, Noto Sans CJK KR, sans-serif" font-size="23" dominant-baseline="text-before-edge">일반 본선 중심선</text>
<text x="1110.00" y="540.00" fill="#172b3a" font-family="Malgun Gothic, Noto Sans CJK KR, sans-serif" font-size="24" dominant-baseline="text-before-edge">벽 안쪽 면에서 약 42.5 cm</text>
<text x="1110.00" y="605.00" fill="#b34242" font-family="Malgun Gothic, Noto Sans CJK KR, sans-serif" font-size="25" dominant-baseline="text-before-edge">갈림길·합류부는 예외</text>
<text x="45.00" y="752.00" fill="#516573" font-family="Malgun Gothic, Noto Sans CJK KR, sans-serif" font-size="21" dominant-baseline="text-before-edge">출처: 공식 배포 ZIP의 scene.json 및 track_gen.py. 그림은 직선부 설명용이며 실제 트랙 전체의 배치도는 아닙니다.</text>
<text x="45.00" y="792.00" fill="#516573" font-family="Malgun Gothic, Noto Sans CJK KR, sans-serif" font-size="20" dominant-baseline="text-before-edge">가림 중에는 벽·이전 관측·엔코더/IMU로 짧은 경로를 유지하되, 보지 못한 공간을 자동으로 안전한 도로로 채우지 않습니다.</text>
</svg>
