# Generated experimental raised-cosine road bump; metres.
mtllib bump_surface.mtl
o curved_bump
usemtl yellow
v -0.1000000000 -0.0450000000 0.0000000000
v -0.1000000000 0.0000000000 0.0000000000
v -0.1000000000 -0.0450000000 -0.0010000000
v -0.1000000000 0.0000000000 -0.0010000000
v -0.0950000000 -0.0450000000 0.0000615583
v -0.0950000000 0.0000000000 0.0000615583
v -0.0950000000 -0.0450000000 -0.0010000000
v -0.0950000000 0.0000000000 -0.0010000000
v -0.0900000000 -0.0450000000 0.0002447174
v -0.0900000000 0.0000000000 0.0002447174
v -0.0900000000 -0.0450000000 -0.0010000000
v -0.0900000000 0.0000000000 -0.0010000000
v -0.0850000000 -0.0450000000 0.0005449674
v -0.0850000000 0.0000000000 0.0005449674
v -0.0850000000 -0.0450000000 -0.0010000000
v -0.0850000000 0.0000000000 -0.0010000000
v -0.0800000000 -0.0450000000 0.0009549150
v -0.0800000000 0.0000000000 0.0009549150
v -0.0800000000 -0.0450000000 -0.0010000000
v -0.0800000000 0.0000000000 -0.0010000000
v -0.0750000000 -0.0450000000 0.0014644661
v -0.0750000000 0.0000000000 0.0014644661
v -0.0750000000 -0.0450000000 -0.0010000000
v -0.0750000000 0.0000000000 -0.0010000000
v -0.0700000000 -0.0450000000 0.0020610737
v -0.0700000000 0.0000000000 0.0020610737
v -0.0700000000 -0.0450000000 -0.0010000000
v -0.0700000000 0.0000000000 -0.0010000000
v -0.0650000000 -0.0450000000 0.0027300475
v -0.0650000000 0.0000000000 0.0027300475
v -0.0650000000 -0.0450000000 -0.0010000000
v -0.0650000000 0.0000000000 -0.0010000000
v -0.0600000000 -0.0450000000 0.0034549150
v -0.0600000000 0.0000000000 0.0034549150
v -0.0600000000 -0.0450000000 -0.0010000000
v -0.0600000000 0.0000000000 -0.0010000000
v -0.0550000000 -0.0450000000 0.0042178277
v -0.0550000000 0.0000000000 0.0042178277
v -0.0550000000 -0.0450000000 -0.0010000000
v -0.0550000000 0.0000000000 -0.0010000000
v -0.0500000000 -0.0450000000 0.0050000000
v -0.0500000000 0.0000000000 0.0050000000
v -0.0500000000 -0.0450000000 -0.0010000000
v -0.0500000000 0.0000000000 -0.0010000000
v -0.0450000000 -0.0450000000 0.0057821723
v -0.0450000000 0.0000000000 0.0057821723
v -0.0450000000 -0.0450000000 -0.0010000000
v -0.0450000000 0.0000000000 -0.0010000000
v -0.0400000000 -0.0450000000 0.0065450850
v -0.0400000000 0.0000000000 0.0065450850
v -0.0400000000 -0.0450000000 -0.0010000000
v -0.0400000000 0.0000000000 -0.0010000000
v -0.0350000000 -0.0450000000 0.0072699525
v -0.0350000000 0.0000000000 0.0072699525
v -0.0350000000 -0.0450000000 -0.0010000000
v -0.0350000000 0.0000000000 -0.0010000000
v -0.0300000000 -0.0450000000 0.0079389263
v -0.0300000000 0.0000000000 0.0079389263
v -0.0300000000 -0.0450000000 -0.0010000000
v -0.0300000000 0.0000000000 -0.0010000000
v -0.0250000000 -0.0450000000 0.0085355339
v -0.0250000000 0.0000000000 0.0085355339
v -0.0250000000 -0.0450000000 -0.0010000000
v -0.0250000000 0.0000000000 -0.0010000000
v -0.0200000000 -0.0450000000 0.0090450850
v -0.0200000000 0.0000000000 0.0090450850
v -0.0200000000 -0.0450000000 -0.0010000000
v -0.0200000000 0.0000000000 -0.0010000000
v -0.0150000000 -0.0450000000 0.0094550326
v -0.0150000000 0.0000000000 0.0094550326
v -0.0150000000 -0.0450000000 -0.0010000000
v -0.0150000000 0.0000000000 -0.0010000000
v -0.0100000000 -0.0450000000 0.0097552826
v -0.0100000000 0.0000000000 0.0097552826
v -0.0100000000 -0.0450000000 -0.0010000000
v -0.0100000000 0.0000000000 -0.0010000000
v -0.0050000000 -0.0450000000 0.0099384417
v -0.0050000000 0.0000000000 0.0099384417
v -0.0050000000 -0.0450000000 -0.0010000000
v -0.0050000000 0.0000000000 -0.0010000000
v 0.0000000000 -0.0450000000 0.0100000000
v 0.0000000000 0.0000000000 0.0100000000
v 0.0000000000 -0.0450000000 -0.0010000000
v 0.0000000000 0.0000000000 -0.0010000000
v 0.0050000000 -0.0450000000 0.0099384417
v 0.0050000000 0.0000000000 0.0099384417
v 0.0050000000 -0.0450000000 -0.0010000000
v 0.0050000000 0.0000000000 -0.0010000000
v 0.0100000000 -0.0450000000 0.0097552826
v 0.0100000000 0.0000000000 0.0097552826
v 0.0100000000 -0.0450000000 -0.0010000000
v 0.0100000000 0.0000000000 -0.0010000000
v 0.0150000000 -0.0450000000 0.0094550326
v 0.0150000000 0.0000000000 0.0094550326
v 0.0150000000 -0.0450000000 -0.0010000000
v 0.0150000000 0.0000000000 -0.0010000000
v 0.0200000000 -0.0450000000 0.0090450850
v 0.0200000000 0.0000000000 0.0090450850
v 0.0200000000 -0.0450000000 -0.0010000000
v 0.0200000000 0.0000000000 -0.0010000000
v 0.0250000000 -0.0450000000 0.0085355339
v 0.0250000000 0.0000000000 0.0085355339
v 0.0250000000 -0.0450000000 -0.0010000000
v 0.0250000000 0.0000000000 -0.0010000000
v 0.0300000000 -0.0450000000 0.0079389263
v 0.0300000000 0.0000000000 0.0079389263
v 0.0300000000 -0.0450000000 -0.0010000000
v 0.0300000000 0.0000000000 -0.0010000000
v 0.0350000000 -0.0450000000 0.0072699525
v 0.0350000000 0.0000000000 0.0072699525
v 0.0350000000 -0.0450000000 -0.0010000000
v 0.0350000000 0.0000000000 -0.0010000000
v 0.0400000000 -0.0450000000 0.0065450850
v 0.0400000000 0.0000000000 0.0065450850
v 0.0400000000 -0.0450000000 -0.0010000000
v 0.0400000000 0.0000000000 -0.0010000000
v 0.0450000000 -0.0450000000 0.0057821723
v 0.0450000000 0.0000000000 0.0057821723
v 0.0450000000 -0.0450000000 -0.0010000000
v 0.0450000000 0.0000000000 -0.0010000000
v 0.0500000000 -0.0450000000 0.0050000000
v 0.0500000000 0.0000000000 0.0050000000
v 0.0500000000 -0.0450000000 -0.0010000000
v 0.0500000000 0.0000000000 -0.0010000000
v 0.0550000000 -0.0450000000 0.0042178277
v 0.0550000000 0.0000000000 0.0042178277
v 0.0550000000 -0.0450000000 -0.0010000000
v 0.0550000000 0.0000000000 -0.0010000000
v 0.0600000000 -0.0450000000 0.0034549150
v 0.0600000000 0.0000000000 0.0034549150
v 0.0600000000 -0.0450000000 -0.0010000000
v 0.0600000000 0.0000000000 -0.0010000000
v 0.0650000000 -0.0450000000 0.0027300475
v 0.0650000000 0.0000000000 0.0027300475
v 0.0650000000 -0.0450000000 -0.0010000000
v 0.0650000000 0.0000000000 -0.0010000000
v 0.0700000000 -0.0450000000 0.0020610737
v 0.0700000000 0.0000000000 0.0020610737
v 0.0700000000 -0.0450000000 -0.0010000000
v 0.0700000000 0.0000000000 -0.0010000000
v 0.0750000000 -0.0450000000 0.0014644661
v 0.0750000000 0.0000000000 0.0014644661
v 0.0750000000 -0.0450000000 -0.0010000000
v 0.0750000000 0.0000000000 -0.0010000000
v 0.0800000000 -0.0450000000 0.0009549150
v 0.0800000000 0.0000000000 0.0009549150
v 0.0800000000 -0.0450000000 -0.0010000000
v 0.0800000000 0.0000000000 -0.0010000000
v 0.0850000000 -0.0450000000 0.0005449674
v 0.0850000000 0.0000000000 0.0005449674
v 0.0850000000 -0.0450000000 -0.0010000000
v 0.0850000000 0.0000000000 -0.0010000000
v 0.0900000000 -0.0450000000 0.0002447174
v 0.0900000000 0.0000000000 0.0002447174
v 0.0900000000 -0.0450000000 -0.0010000000
v 0.0900000000 0.0000000000 -0.0010000000
v 0.0950000000 -0.0450000000 0.0000615583
v 0.0950000000 0.0000000000 0.0000615583
v 0.0950000000 -0.0450000000 -0.0010000000
v 0.0950000000 0.0000000000 -0.0010000000
v 0.1000000000 -0.0450000000 0.0000000000
v 0.1000000000 0.0000000000 0.0000000000
v 0.1000000000 -0.0450000000 -0.0010000000
v 0.1000000000 0.0000000000 -0.0010000000
vn -0.0123107264 0.0000000000 0.9999242201
vn -0.0123107264 0.0000000000 0.9999242201
vn 0.0000000000 0.0000000000 -1.0000000000
vn 0.0000000000 0.0000000000 -1.0000000000
vn 0.0000000000 -1.0000000000 0.0000000000
vn 0.0000000000 -1.0000000000 0.0000000000
vn -0.0000000000 1.0000000000 0.0000000000
vn 0.0000000000 1.0000000000 0.0000000000
vn -0.0366072711 0.0000000000 0.9993297292
vn -0.0366072711 0.0000000000 0.9993297292
vn 0.0000000000 0.0000000000 -1.0000000000
vn 0.0000000000 0.0000000000 -1.0000000000
vn 0.0000000000 -1.0000000000 0.0000000000
vn 0.0000000000 -1.0000000000 0.0000000000
vn -0.0000000000 1.0000000000 0.0000000000
vn 0.0000000000 1.0000000000 0.0000000000
vn -0.0599420139 0.0000000000 0.9982018608
vn -0.0599420139 0.0000000000 0.9982018608
vn 0.0000000000 0.0000000000 -1.0000000000
vn 0.0000000000 0.0000000000 -1.0000000000
vn 0.0000000000 -1.0000000000 0.0000000000
vn 0.0000000000 -1.0000000000 0.0000000000
vn -0.0000000000 1.0000000000 0.0000000000
vn 0.0000000000 1.0000000000 0.0000000000
vn -0.0817153331 0.0000000000 0.9966557100
vn -0.0817153331 0.0000000000 0.9966557100
vn 0.0000000000 0.0000000000 -1.0000000000
vn 0.0000000000 0.0000000000 -1.0000000000
vn 0.0000000000 -1.0000000000 0.0000000000
vn 0.0000000000 -1.0000000000 0.0000000000
vn -0.0000000000 1.0000000000 0.0000000000
vn 0.0000000000 1.0000000000 0.0000000000
vn -0.1013850959 0.0000000000 0.9948472558
vn -0.1013850959 0.0000000000 0.9948472558
vn 0.0000000000 0.0000000000 -1.0000000000
vn 0.0000000000 0.0000000000 -1.0000000000
vn 0.0000000000 -1.0000000000 0.0000000000
vn 0.0000000000 -1.0000000000 0.0000000000
vn -0.0000000000 1.0000000000 0.0000000000
vn 0.0000000000 1.0000000000 0.0000000000
vn -0.1184810653 0.0000000000 0.9929563118
vn -0.1184810653 0.0000000000 0.9929563118
vn 0.0000000000 0.0000000000 -1.0000000000
vn 0.0000000000 0.0000000000 -1.0000000000
vn 0.0000000000 -1.0000000000 0.0000000000
vn 0.0000000000 -1.0000000000 0.0000000000
vn -0.0000000000 1.0000000000 0.0000000000
vn 0.0000000000 1.0000000000 0.0000000000
vn -0.1326130619 0.0000000000 0.9911678848
vn -0.1326130619 0.0000000000 0.9911678848
vn 0.0000000000 0.0000000000 -1.0000000000
vn 0.0000000000 0.0000000000 -1.0000000000
vn 0.0000000000 -1.0000000000 0.0000000000
vn 0.0000000000 -1.0000000000 0.0000000000
vn -0.0000000000 1.0000000000 0.0000000000
vn 0.0000000000 1.0000000000 0.0000000000
vn -0.1434736298 0.0000000000 0.9896541404
vn -0.1434736298 0.0000000000 0.9896541404
vn 0.0000000000 0.0000000000 -1.0000000000
vn 0.0000000000 0.0000000000 -1.0000000000
vn 0.0000000000 -1.0000000000 0.0000000000
vn 0.0000000000 -1.0000000000 0.0000000000
vn -0.0000000000 1.0000000000 0.0000000000
vn 0.0000000000 1.0000000000 0.0000000000
vn -0.1508367839 0.0000000000 0.9885586804
vn -0.1508367839 0.0000000000 0.9885586804
vn 0.0000000000 0.0000000000 -1.0000000000
vn 0.0000000000 0.0000000000 -1.0000000000
vn 0.0000000000 -1.0000000000 0.0000000000
vn 0.0000000000 -1.0000000000 0.0000000000
vn -0.0000000000 1.0000000000 0.0000000000
vn 0.0000000000 1.0000000000 0.0000000000
vn -0.1545547829 0.0000000000 0.9879842201
vn -0.1545547829 0.0000000000 0.9879842201
vn 0.0000000000 0.0000000000 -1.0000000000
vn 0.0000000000 0.0000000000 -1.0000000000
vn 0.0000000000 -1.0000000000 0.0000000000
vn 0.0000000000 -1.0000000000 0.0000000000
vn -0.0000000000 1.0000000000 0.0000000000
vn 0.0000000000 1.0000000000 0.0000000000
vn -0.1545547829 0.0000000000 0.9879842201
vn -0.1545547829 0.0000000000 0.9879842201
vn 0.0000000000 0.0000000000 -1.0000000000
vn 0.0000000000 0.0000000000 -1.0000000000
vn 0.0000000000 -1.0000000000 0.0000000000
vn 0.0000000000 -1.0000000000 0.0000000000
vn -0.0000000000 1.0000000000 0.0000000000
vn 0.0000000000 1.0000000000 0.0000000000
vn -0.1508367839 0.0000000000 0.9885586804
vn -0.1508367839 0.0000000000 0.9885586804
vn 0.0000000000 0.0000000000 -1.0000000000
vn 0.0000000000 0.0000000000 -1.0000000000
vn 0.0000000000 -1.0000000000 0.0000000000
vn 0.0000000000 -1.0000000000 0.0000000000
vn -0.0000000000 1.0000000000 0.0000000000
vn 0.0000000000 1.0000000000 0.0000000000
vn -0.1434736298 0.0000000000 0.9896541404
vn -0.1434736298 0.0000000000 0.9896541404
vn 0.0000000000 0.0000000000 -1.0000000000
vn 0.0000000000 0.0000000000 -1.0000000000
vn 0.0000000000 -1.0000000000 0.0000000000
vn 0.0000000000 -1.0000000000 0.0000000000
vn -0.0000000000 1.0000000000 0.0000000000
vn 0.0000000000 1.0000000000 0.0000000000
vn -0.1326130619 0.0000000000 0.9911678848
vn -0.1326130619 0.0000000000 0.9911678848
vn 0.0000000000 0.0000000000 -1.0000000000
vn 0.0000000000 0.0000000000 -1.0000000000
vn 0.0000000000 -1.0000000000 0.0000000000
vn 0.0000000000 -1.0000000000 0.0000000000
vn -0.0000000000 1.0000000000 0.0000000000
vn 0.0000000000 1.0000000000 0.0000000000
vn -0.1184810653 0.0000000000 0.9929563118
vn -0.1184810653 0.0000000000 0.9929563118
vn 0.0000000000 0.0000000000 -1.0000000000
vn 0.0000000000 0.0000000000 -1.0000000000
vn 0.0000000000 -1.0000000000 0.0000000000
vn 0.0000000000 -1.0000000000 0.0000000000
vn -0.0000000000 1.0000000000 0.0000000000
vn 0.0000000000 1.0000000000 0.0000000000
vn -0.1013850959 0.0000000000 0.9948472558
vn -0.1013850959 0.0000000000 0.9948472558
vn 0.0000000000 0.0000000000 -1.0000000000
vn 0.0000000000 0.0000000000 -1.0000000000
vn 0.0000000000 -1.0000000000 0.0000000000
vn 0.0000000000 -1.0000000000 0.0000000000
vn -0.0000000000 1.0000000000 0.0000000000
vn 0.0000000000 1.0000000000 0.0000000000
vn -0.0817153331 0.0000000000 0.9966557100
vn -0.0817153331 0.0000000000 0.9966557100
vn 0.0000000000 0.0000000000 -1.0000000000
vn 0.0000000000 0.0000000000 -1.0000000000
vn 0.0000000000 -1.0000000000 0.0000000000
vn 0.0000000000 -1.0000000000 0.0000000000
vn -0.0000000000 1.0000000000 0.0000000000
vn 0.0000000000 1.0000000000 0.0000000000
vn -0.0599420139 0.0000000000 0.9982018608
vn -0.0599420139 0.0000000000 0.9982018608
vn 0.0000000000 0.0000000000 -1.0000000000
vn 0.0000000000 0.0000000000 -1.0000000000
vn 0.0000000000 -1.0000000000 0.0000000000
vn 0.0000000000 -1.0000000000 0.0000000000
vn -0.0000000000 1.0000000000 0.0000000000
vn 0.0000000000 1.0000000000 0.0000000000
vn -0.0366072711 0.0000000000 0.9993297292
vn -0.0366072711 0.0000000000 0.9993297292
vn 0.0000000000 0.0000000000 -1.0000000000
vn 0.0000000000 0.0000000000 -1.0000000000
vn 0.0000000000 -1.0000000000 0.0000000000
vn 0.0000000000 -1.0000000000 0.0000000000
vn -0.0000000000 1.0000000000 0.0000000000
vn 0.0000000000 1.0000000000 0.0000000000
vn -0.0123107264 0.0000000000 0.9999242201
vn -0.0123107264 0.0000000000 0.9999242201
vn 0.0000000000 0.0000000000 -1.0000000000
vn 0.0000000000 0.0000000000 -1.0000000000
vn 0.0000000000 -1.0000000000 0.0000000000
vn 0.0000000000 -1.0000000000 0.0000000000
vn -0.0000000000 1.0000000000 0.0000000000
vn 0.0000000000 1.0000000000 0.0000000000
vn 0.0123107264 0.0000000000 0.9999242201
vn 0.0123107264 -0.0000000000 0.9999242201
vn 0.0000000000 0.0000000000 -1.0000000000
vn 0.0000000000 0.0000000000 -1.0000000000
vn 0.0000000000 -1.0000000000 0.0000000000
vn 0.0000000000 -1.0000000000 0.0000000000
vn 0.0000000000 1.0000000000 0.0000000000
vn 0.0000000000 1.0000000000 0.0000000000
vn 0.0366072711 0.0000000000 0.9993297292
vn 0.0366072711 -0.0000000000 0.9993297292
vn 0.0000000000 0.0000000000 -1.0000000000
vn 0.0000000000 0.0000000000 -1.0000000000
vn 0.0000000000 -1.0000000000 0.0000000000
vn 0.0000000000 -1.0000000000 0.0000000000
vn 0.0000000000 1.0000000000 0.0000000000
vn 0.0000000000 1.0000000000 0.0000000000
vn 0.0599420139 0.0000000000 0.9982018608
vn 0.0599420139 -0.0000000000 0.9982018608
vn 0.0000000000 0.0000000000 -1.0000000000
vn 0.0000000000 0.0000000000 -1.0000000000
vn 0.0000000000 -1.0000000000 0.0000000000
vn 0.0000000000 -1.0000000000 0.0000000000
vn 0.0000000000 1.0000000000 0.0000000000
vn 0.0000000000 1.0000000000 0.0000000000
vn 0.0817153331 0.0000000000 0.9966557100
vn 0.0817153331 -0.0000000000 0.9966557100
vn 0.0000000000 0.0000000000 -1.0000000000
vn 0.0000000000 0.0000000000 -1.0000000000
vn 0.0000000000 -1.0000000000 0.0000000000
vn 0.0000000000 -1.0000000000 0.0000000000
vn 0.0000000000 1.0000000000 0.0000000000
vn 0.0000000000 1.0000000000 0.0000000000
vn 0.1013850959 0.0000000000 0.9948472558
vn 0.1013850959 -0.0000000000 0.9948472558
vn 0.0000000000 0.0000000000 -1.0000000000
vn 0.0000000000 0.0000000000 -1.0000000000
vn 0.0000000000 -1.0000000000 0.0000000000
vn 0.0000000000 -1.0000000000 0.0000000000
vn 0.0000000000 1.0000000000 0.0000000000
vn 0.0000000000 1.0000000000 0.0000000000
vn 0.1184810653 0.0000000000 0.9929563118
vn 0.1184810653 -0.0000000000 0.9929563118
vn 0.0000000000 0.0000000000 -1.0000000000
vn 0.0000000000 0.0000000000 -1.0000000000
vn 0.0000000000 -1.0000000000 0.0000000000
vn 0.0000000000 -1.0000000000 0.0000000000
vn 0.0000000000 1.0000000000 0.0000000000
vn 0.0000000000 1.0000000000 0.0000000000
vn 0.1326130619 0.0000000000 0.9911678848
vn 0.1326130619 -0.0000000000 0.9911678848
vn 0.0000000000 0.0000000000 -1.0000000000
vn 0.0000000000 0.0000000000 -1.0000000000
vn 0.0000000000 -1.0000000000 0.0000000000
vn 0.0000000000 -1.0000000000 0.0000000000
vn 0.0000000000 1.0000000000 0.0000000000
vn 0.0000000000 1.0000000000 0.0000000000
vn 0.1434736298 0.0000000000 0.9896541404
vn 0.1434736298 -0.0000000000 0.9896541404
vn 0.0000000000 0.0000000000 -1.0000000000
vn 0.0000000000 0.0000000000 -1.0000000000
vn 0.0000000000 -1.0000000000 0.0000000000
vn 0.0000000000 -1.0000000000 0.0000000000
vn 0.0000000000 1.0000000000 0.0000000000
vn 0.0000000000 1.0000000000 0.0000000000
vn 0.1508367839 0.0000000000 0.9885586804
vn 0.1508367839 -0.0000000000 0.9885586804
vn 0.0000000000 0.0000000000 -1.0000000000
vn 0.0000000000 0.0000000000 -1.0000000000
vn 0.0000000000 -1.0000000000 0.0000000000
vn 0.0000000000 -1.0000000000 0.0000000000
vn 0.0000000000 1.0000000000 0.0000000000
vn 0.0000000000 1.0000000000 0.0000000000
vn 0.1545547829 0.0000000000 0.9879842201
vn 0.1545547829 -0.0000000000 0.9879842201
vn 0.0000000000 0.0000000000 -1.0000000000
vn 0.0000000000 0.0000000000 -1.0000000000
vn 0.0000000000 -1.0000000000 0.0000000000
vn 0.0000000000 -1.0000000000 0.0000000000
vn 0.0000000000 1.0000000000 0.0000000000
vn 0.0000000000 1.0000000000 0.0000000000
vn 0.1545547829 0.0000000000 0.9879842201
vn 0.1545547829 -0.0000000000 0.9879842201
vn 0.0000000000 0.0000000000 -1.0000000000
vn 0.0000000000 0.0000000000 -1.0000000000
vn 0.0000000000 -1.0000000000 0.0000000000
vn 0.0000000000 -1.0000000000 0.0000000000
vn 0.0000000000 1.0000000000 0.0000000000
vn 0.0000000000 1.0000000000 0.0000000000
vn 0.1508367839 0.0000000000 0.9885586804
vn 0.1508367839 -0.0000000000 0.9885586804
vn 0.0000000000 0.0000000000 -1.0000000000
vn 0.0000000000 0.0000000000 -1.0000000000
vn 0.0000000000 -1.0000000000 0.0000000000
vn 0.0000000000 -1.0000000000 0.0000000000
vn 0.0000000000 1.0000000000 0.0000000000
vn 0.0000000000 1.0000000000 0.0000000000
vn 0.1434736298 0.0000000000 0.9896541404
vn 0.1434736298 -0.0000000000 0.9896541404
vn 0.0000000000 0.0000000000 -1.0000000000
vn 0.0000000000 0.0000000000 -1.0000000000
vn 0.0000000000 -1.0000000000 0.0000000000
vn 0.0000000000 -1.0000000000 0.0000000000
vn 0.0000000000 1.0000000000 0.0000000000
vn 0.0000000000 1.0000000000 0.0000000000
vn 0.1326130619 0.0000000000 0.9911678848
vn 0.1326130619 -0.0000000000 0.9911678848
vn 0.0000000000 0.0000000000 -1.0000000000
vn 0.0000000000 0.0000000000 -1.0000000000
vn 0.0000000000 -1.0000000000 0.0000000000
vn 0.0000000000 -1.0000000000 0.0000000000
vn 0.0000000000 1.0000000000 0.0000000000
vn 0.0000000000 1.0000000000 0.0000000000
vn 0.1184810653 0.0000000000 0.9929563118
vn 0.1184810653 -0.0000000000 0.9929563118
vn 0.0000000000 0.0000000000 -1.0000000000
vn 0.0000000000 0.0000000000 -1.0000000000
vn 0.0000000000 -1.0000000000 0.0000000000
vn 0.0000000000 -1.0000000000 0.0000000000
vn 0.0000000000 1.0000000000 0.0000000000
vn 0.0000000000 1.0000000000 0.0000000000
vn 0.1013850959 0.0000000000 0.9948472558
vn 0.1013850959 -0.0000000000 0.9948472558
vn 0.0000000000 0.0000000000 -1.0000000000
vn 0.0000000000 0.0000000000 -1.0000000000
vn 0.0000000000 -1.0000000000 0.0000000000
vn 0.0000000000 -1.0000000000 0.0000000000
vn 0.0000000000 1.0000000000 0.0000000000
vn 0.0000000000 1.0000000000 0.0000000000
vn 0.0817153331 0.0000000000 0.9966557100
vn 0.0817153331 -0.0000000000 0.9966557100
vn 0.0000000000 0.0000000000 -1.0000000000
vn 0.0000000000 0.0000000000 -1.0000000000
vn 0.0000000000 -1.0000000000 0.0000000000
vn 0.0000000000 -1.0000000000 0.0000000000
vn 0.0000000000 1.0000000000 0.0000000000
vn 0.0000000000 1.0000000000 0.0000000000
vn 0.0599420139 0.0000000000 0.9982018608
vn 0.0599420139 -0.0000000000 0.9982018608
vn 0.0000000000 0.0000000000 -1.0000000000
vn 0.0000000000 0.0000000000 -1.0000000000
vn 0.0000000000 -1.0000000000 0.0000000000
vn 0.0000000000 -1.0000000000 0.0000000000
vn 0.0000000000 1.0000000000 0.0000000000
vn 0.0000000000 1.0000000000 0.0000000000
vn 0.0366072711 0.0000000000 0.9993297292
vn 0.0366072711 -0.0000000000 0.9993297292
vn 0.0000000000 0.0000000000 -1.0000000000
vn 0.0000000000 0.0000000000 -1.0000000000
vn 0.0000000000 -1.0000000000 0.0000000000
vn 0.0000000000 -1.0000000000 0.0000000000
vn 0.0000000000 1.0000000000 0.0000000000
vn 0.0000000000 1.0000000000 0.0000000000
vn 0.0123107264 0.0000000000 0.9999242201
vn 0.0123107264 -0.0000000000 0.9999242201
vn 0.0000000000 0.0000000000 -1.0000000000
vn 0.0000000000 0.0000000000 -1.0000000000
vn 0.0000000000 -1.0000000000 0.0000000000
vn 0.0000000000 -1.0000000000 0.0000000000
vn 0.0000000000 1.0000000000 0.0000000000
vn 0.0000000000 1.0000000000 0.0000000000
vn -1.0000000000 0.0000000000 0.0000000000
vn -1.0000000000 0.0000000000 0.0000000000
vn 1.0000000000 0.0000000000 0.0000000000
vn 1.0000000000 -0.0000000000 0.0000000000
f 1//1 5//1 6//1
f 1//2 6//2 2//2
f 3//3 4//3 8//3
f 3//4 8//4 7//4
f 3//5 7//5 5//5
f 3//6 5//6 1//6
f 2//7 6//7 8//7
f 2//8 8//8 4//8
f 5//9 9//9 10//9
f 5//10 10//10 6//10
f 7//11 8//11 12//11
f 7//12 12//12 11//12
f 7//13 11//13 9//13
f 7//14 9//14 5//14
f 6//15 10//15 12//15
f 6//16 12//16 8//16
f 9//17 13//17 14//17
f 9//18 14//18 10//18
f 11//19 12//19 16//19
f 11//20 16//20 15//20
f 11//21 15//21 13//21
f 11//22 13//22 9//22
f 10//23 14//23 16//23
f 10//24 16//24 12//24
f 13//25 17//25 18//25
f 13//26 18//26 14//26
f 15//27 16//27 20//27
f 15//28 20//28 19//28
f 15//29 19//29 17//29
f 15//30 17//30 13//30
f 14//31 18//31 20//31
f 14//32 20//32 16//32
f 17//33 21//33 22//33
f 17//34 22//34 18//34
f 19//35 20//35 24//35
f 19//36 24//36 23//36
f 19//37 23//37 21//37
f 19//38 21//38 17//38
f 18//39 22//39 24//39
f 18//40 24//40 20//40
f 21//41 25//41 26//41
f 21//42 26//42 22//42
f 23//43 24//43 28//43
f 23//44 28//44 27//44
f 23//45 27//45 25//45
f 23//46 25//46 21//46
f 22//47 26//47 28//47
f 22//48 28//48 24//48
f 25//49 29//49 30//49
f 25//50 30//50 26//50
f 27//51 28//51 32//51
f 27//52 32//52 31//52
f 27//53 31//53 29//53
f 27//54 29//54 25//54
f 26//55 30//55 32//55
f 26//56 32//56 28//56
f 29//57 33//57 34//57
f 29//58 34//58 30//58
f 31//59 32//59 36//59
f 31//60 36//60 35//60
f 31//61 35//61 33//61
f 31//62 33//62 29//62
f 30//63 34//63 36//63
f 30//64 36//64 32//64
f 33//65 37//65 38//65
f 33//66 38//66 34//66
f 35//67 36//67 40//67
f 35//68 40//68 39//68
f 35//69 39//69 37//69
f 35//70 37//70 33//70
f 34//71 38//71 40//71
f 34//72 40//72 36//72
f 37//73 41//73 42//73
f 37//74 42//74 38//74
f 39//75 40//75 44//75
f 39//76 44//76 43//76
f 39//77 43//77 41//77
f 39//78 41//78 37//78
f 38//79 42//79 44//79
f 38//80 44//80 40//80
f 41//81 45//81 46//81
f 41//82 46//82 42//82
f 43//83 44//83 48//83
f 43//84 48//84 47//84
f 43//85 47//85 45//85
f 43//86 45//86 41//86
f 42//87 46//87 48//87
f 42//88 48//88 44//88
f 45//89 49//89 50//89
f 45//90 50//90 46//90
f 47//91 48//91 52//91
f 47//92 52//92 51//92
f 47//93 51//93 49//93
f 47//94 49//94 45//94
f 46//95 50//95 52//95
f 46//96 52//96 48//96
f 49//97 53//97 54//97
f 49//98 54//98 50//98
f 51//99 52//99 56//99
f 51//100 56//100 55//100
f 51//101 55//101 53//101
f 51//102 53//102 49//102
f 50//103 54//103 56//103
f 50//104 56//104 52//104
f 53//105 57//105 58//105
f 53//106 58//106 54//106
f 55//107 56//107 60//107
f 55//108 60//108 59//108
f 55//109 59//109 57//109
f 55//110 57//110 53//110
f 54//111 58//111 60//111
f 54//112 60//112 56//112
f 57//113 61//113 62//113
f 57//114 62//114 58//114
f 59//115 60//115 64//115
f 59//116 64//116 63//116
f 59//117 63//117 61//117
f 59//118 61//118 57//118
f 58//119 62//119 64//119
f 58//120 64//120 60//120
f 61//121 65//121 66//121
f 61//122 66//122 62//122
f 63//123 64//123 68//123
f 63//124 68//124 67//124
f 63//125 67//125 65//125
f 63//126 65//126 61//126
f 62//127 66//127 68//127
f 62//128 68//128 64//128
f 65//129 69//129 70//129
f 65//130 70//130 66//130
f 67//131 68//131 72//131
f 67//132 72//132 71//132
f 67//133 71//133 69//133
f 67//134 69//134 65//134
f 66//135 70//135 72//135
f 66//136 72//136 68//136
f 69//137 73//137 74//137
f 69//138 74//138 70//138
f 71//139 72//139 76//139
f 71//140 76//140 75//140
f 71//141 75//141 73//141
f 71//142 73//142 69//142
f 70//143 74//143 76//143
f 70//144 76//144 72//144
f 73//145 77//145 78//145
f 73//146 78//146 74//146
f 75//147 76//147 80//147
f 75//148 80//148 79//148
f 75//149 79//149 77//149
f 75//150 77//150 73//150
f 74//151 78//151 80//151
f 74//152 80//152 76//152
f 77//153 81//153 82//153
f 77//154 82//154 78//154
f 79//155 80//155 84//155
f 79//156 84//156 83//156
f 79//157 83//157 81//157
f 79//158 81//158 77//158
f 78//159 82//159 84//159
f 78//160 84//160 80//160
f 81//161 85//161 86//161
f 81//162 86//162 82//162
f 83//163 84//163 88//163
f 83//164 88//164 87//164
f 83//165 87//165 85//165
f 83//166 85//166 81//166
f 82//167 86//167 88//167
f 82//168 88//168 84//168
f 85//169 89//169 90//169
f 85//170 90//170 86//170
f 87//171 88//171 92//171
f 87//172 92//172 91//172
f 87//173 91//173 89//173
f 87//174 89//174 85//174
f 86//175 90//175 92//175
f 86//176 92//176 88//176
f 89//177 93//177 94//177
f 89//178 94//178 90//178
f 91//179 92//179 96//179
f 91//180 96//180 95//180
f 91//181 95//181 93//181
f 91//182 93//182 89//182
f 90//183 94//183 96//183
f 90//184 96//184 92//184
f 93//185 97//185 98//185
f 93//186 98//186 94//186
f 95//187 96//187 100//187
f 95//188 100//188 99//188
f 95//189 99//189 97//189
f 95//190 97//190 93//190
f 94//191 98//191 100//191
f 94//192 100//192 96//192
f 97//193 101//193 102//193
f 97//194 102//194 98//194
f 99//195 100//195 104//195
f 99//196 104//196 103//196
f 99//197 103//197 101//197
f 99//198 101//198 97//198
f 98//199 102//199 104//199
f 98//200 104//200 100//200
f 101//201 105//201 106//201
f 101//202 106//202 102//202
f 103//203 104//203 108//203
f 103//204 108//204 107//204
f 103//205 107//205 105//205
f 103//206 105//206 101//206
f 102//207 106//207 108//207
f 102//208 108//208 104//208
f 105//209 109//209 110//209
f 105//210 110//210 106//210
f 107//211 108//211 112//211
f 107//212 112//212 111//212
f 107//213 111//213 109//213
f 107//214 109//214 105//214
f 106//215 110//215 112//215
f 106//216 112//216 108//216
f 109//217 113//217 114//217
f 109//218 114//218 110//218
f 111//219 112//219 116//219
f 111//220 116//220 115//220
f 111//221 115//221 113//221
f 111//222 113//222 109//222
f 110//223 114//223 116//223
f 110//224 116//224 112//224
f 113//225 117//225 118//225
f 113//226 118//226 114//226
f 115//227 116//227 120//227
f 115//228 120//228 119//228
f 115//229 119//229 117//229
f 115//230 117//230 113//230
f 114//231 118//231 120//231
f 114//232 120//232 116//232
f 117//233 121//233 122//233
f 117//234 122//234 118//234
f 119//235 120//235 124//235
f 119//236 124//236 123//236
f 119//237 123//237 121//237
f 119//238 121//238 117//238
f 118//239 122//239 124//239
f 118//240 124//240 120//240
f 121//241 125//241 126//241
f 121//242 126//242 122//242
f 123//243 124//243 128//243
f 123//244 128//244 127//244
f 123//245 127//245 125//245
f 123//246 125//246 121//246
f 122//247 126//247 128//247
f 122//248 128//248 124//248
f 125//249 129//249 130//249
f 125//250 130//250 126//250
f 127//251 128//251 132//251
f 127//252 132//252 131//252
f 127//253 131//253 129//253
f 127//254 129//254 125//254
f 126//255 130//255 132//255
f 126//256 132//256 128//256
f 129//257 133//257 134//257
f 129//258 134//258 130//258
f 131//259 132//259 136//259
f 131//260 136//260 135//260
f 131//261 135//261 133//261
f 131//262 133//262 129//262
f 130//263 134//263 136//263
f 130//264 136//264 132//264
f 133//265 137//265 138//265
f 133//266 138//266 134//266
f 135//267 136//267 140//267
f 135//268 140//268 139//268
f 135//269 139//269 137//269
f 135//270 137//270 133//270
f 134//271 138//271 140//271
f 134//272 140//272 136//272
f 137//273 141//273 142//273
f 137//274 142//274 138//274
f 139//275 140//275 144//275
f 139//276 144//276 143//276
f 139//277 143//277 141//277
f 139//278 141//278 137//278
f 138//279 142//279 144//279
f 138//280 144//280 140//280
f 141//281 145//281 146//281
f 141//282 146//282 142//282
f 143//283 144//283 148//283
f 143//284 148//284 147//284
f 143//285 147//285 145//285
f 143//286 145//286 141//286
f 142//287 146//287 148//287
f 142//288 148//288 144//288
f 145//289 149//289 150//289
f 145//290 150//290 146//290
f 147//291 148//291 152//291
f 147//292 152//292 151//292
f 147//293 151//293 149//293
f 147//294 149//294 145//294
f 146//295 150//295 152//295
f 146//296 152//296 148//296
f 149//297 153//297 154//297
f 149//298 154//298 150//298
f 151//299 152//299 156//299
f 151//300 156//300 155//300
f 151//301 155//301 153//301
f 151//302 153//302 149//302
f 150//303 154//303 156//303
f 150//304 156//304 152//304
f 153//305 157//305 158//305
f 153//306 158//306 154//306
f 155//307 156//307 160//307
f 155//308 160//308 159//308
f 155//309 159//309 157//309
f 155//310 157//310 153//310
f 154//311 158//311 160//311
f 154//312 160//312 156//312
f 157//313 161//313 162//313
f 157//314 162//314 158//314
f 159//315 160//315 164//315
f 159//316 164//316 163//316
f 159//317 163//317 161//317
f 159//318 161//318 157//318
f 158//319 162//319 164//319
f 158//320 164//320 160//320
f 1//321 2//321 4//321
f 1//322 4//322 3//322
f 161//323 163//323 164//323
f 161//324 164//324 162//324
